<?xml version="1.0" encoding="UTF-8" standalone="no"?><svg width="2884" height="1724" viewBox="0 0 2884 1724" xmlns="http://www.w3.org/2000/svg">
<defs>
<marker id="startarrow" markerWidth="10" markerHeight="7"
refX="0" refY="3.5" orient="auto">
<polygon points="10 0, 10 7, 0 3.5" fill="context-stroke" />
</marker>
<marker id="endarrow" markerWidth="10" markerHeight="7"
refX="10" refY="3.5" orient="auto">
<polygon points="0 0, 10 3.5, 0 7" fill="context-stroke" />
</marker>

</defs><style>
.a14 { font-size: 14px; font-family: Times, serif; }
</style>
<g >

            <ellipse cx="323" cy="47" rx="52" ry="17" fill="#ffffffff" 
            stroke-width="1" stroke="#000000ff"/>

            </g>
<text dominant-baseline="middle" text-anchor="middle" 
            x="323" y="33" class="a14"><tspan x = "323" dy="1.0em">Source</tspan></text><g >

            <ellipse cx="323" cy="175" rx="80" ry="17" fill="#ffffffff" 
            stroke-width="1" stroke="#000000ff"/>

            </g>
<text dominant-baseline="middle" text-anchor="middle" 
            x="323" y="161" class="a14"><tspan x = "323" dy="1.0em">LoadSource</tspan></text><g >

            <ellipse cx="2415" cy="303" rx="73" ry="17" fill="#ffffffff" 
            stroke-width="1" stroke="#000000ff"/>

            </g>
<text dominant-baseline="middle" text-anchor="middle" 
            x="2415" y="289" class="a14"><tspan x = "2415" dy="1.0em">AddSubset</tspan></text><g >

            <ellipse cx="2415" cy="431" rx="45" ry="17" fill="#ffffffff" 
            stroke-width="1" stroke="#000000ff"/>

            </g>
<text dominant-baseline="middle" text-anchor="middle" 
            x="2415" y="417" class="a14"><tspan x = "2415" dy="1.0em">Fontc</tspan></text><g >

            <ellipse cx="2415" cy="559" rx="80" ry="17" fill="#ffffffff" 
            stroke-width="1" stroke="#000000ff"/>

            </g>
<text dominant-baseline="middle" text-anchor="middle" 
            x="2415" y="545" class="a14"><tspan x = "2415" dy="1.0em">ToTempFile</tspan></text><g >

            <ellipse cx="2415" cy="687" rx="31" ry="17" fill="#ffffffff" 
            stroke-width="1" stroke="#000000ff"/>

            </g>
<text dominant-baseline="middle" text-anchor="middle" 
            x="2415" y="673" class="a14"><tspan x = "2415" dy="1.0em">Fix</tspan></text><g >

            <ellipse cx="2415" cy="815" rx="59" ry="17" fill="#ffffffff" 
            stroke-width="1" stroke="#000000ff"/>

            </g>
<text dominant-baseline="middle" text-anchor="middle" 
            x="2415" y="801" class="a14"><tspan x = "2415" dy="1.0em">ToBytes</tspan></text><g >

            <ellipse cx="1726" cy="943" rx="73" ry="17" fill="#ffffffff" 
            stroke-width="1" stroke="#000000ff"/>

            </g>
<text dominant-baseline="middle" text-anchor="middle" 
            x="1726" y="929" class="a14"><tspan x = "1726" dy="1.0em">BuildStat</tspan></text><g >

            <ellipse cx="1726" cy="1071" rx="38" ry="17" fill="#ffffffff" 
            stroke-width="1" stroke="#000000ff"/>

            </g>
<text dominant-baseline="middle" text-anchor="middle" 
            x="1726" y="1057" class="a14"><tspan x = "1726" dy="1.0em">Sink</tspan></text><g >

            <ellipse cx="2747" cy="943" rx="66" ry="17" fill="#ffffffff" 
            stroke-width="1" stroke="#000000ff"/>

            </g>
<text dominant-baseline="middle" text-anchor="middle" 
            x="2747" y="929" class="a14"><tspan x = "2747" dy="1.0em">Compress</tspan></text><g >

            <ellipse cx="2747" cy="1071" rx="38" ry="17" fill="#ffffffff" 
            stroke-width="1" stroke="#000000ff"/>

            </g>
<text dominant-baseline="middle" text-anchor="middle" 
            x="2747" y="1057" class="a14"><tspan x = "2747" dy="1.0em">Sink</tspan></text><g >

            <ellipse cx="2415" cy="175" rx="52" ry="17" fill="#ffffffff" 
            stroke-width="1" stroke="#000000ff"/>

            </g>
<text dominant-baseline="middle" text-anchor="middle" 
            x="2415" y="161" class="a14"><tspan x = "2415" dy="1.0em">Source</tspan></text><text dominant-baseline="middle" text-anchor="middle" 
            x="164" y="97" class="a14"><tspan x = "164" dy="1.0em">0:NotoSansLimbu.glyphs</tspan></text><text dominant-baseline="middle" text-anchor="middle" 
            x="164" y="240" class="a14"><tspan x = "164" dy="1.0em">0:NotoSansLimbu.glyphs</tspan></text><text dominant-baseline="middle" text-anchor="middle" 
            x="2277" y="353" class="a14"><tspan x = "2277" dy="1.0em">0:&lt;in-memory bytes&gt;</tspan></text><text dominant-baseline="middle" text-anchor="middle" 
            x="2277" y="481" class="a14"><tspan x = "2277" dy="1.0em">0:&lt;in-memory bytes&gt;</tspan></text><text dominant-baseline="middle" text-anchor="middle" 
            x="2277" y="609" class="a14"><tspan x = "2277" dy="1.0em">0:&lt;in-memory bytes&gt;</tspan></text><text dominant-baseline="middle" text-anchor="middle" 
            x="2284" y="737" class="a14"><tspan x = "2284" dy="1.0em">0:&lt;temporary file&gt;</tspan></text><text dominant-baseline="middle" text-anchor="middle" 
            x="1939.5" y="865" class="a14"><tspan x = "1939.5" dy="1.0em">0:&lt;temporary file&gt;</tspan></text><text dominant-baseline="middle" text-anchor="middle" 
            x="1413" y="993" class="a14"><tspan x = "1413" dy="1.0em">0:../fonts//variable/NotoSansLimbu[wght].ttf</tspan></text><text dominant-baseline="middle" text-anchor="middle" 
            x="2616" y="865" class="a14"><tspan x = "2616" dy="1.0em">0:&lt;temporary file&gt;</tspan></text><text dominant-baseline="middle" text-anchor="middle" 
            x="2420" y="993" class="a14"><tspan x = "2420" dy="1.0em">0:../fonts//webfonts/NotoSansLimbu[wght].woff2</tspan></text><text dominant-baseline="middle" text-anchor="middle" 
            x="1374" y="225" class="a14"><tspan x = "1374" dy="1.0em">1:/Users/simon/Library/Caches/gftools-builder/includesubsets/notofonts_latin-greek-cyrillic/latin-greek-cyrillic-main/sources/NotoSans.glyphspackage</tspan></text><g >

            <path id="arrow0" d="M 323 64 C 323 94, 323 81, 323 111 S 323 128, 323 158 " stroke="#000000ff" stroke-width="1"   marker-end="url(#endarrow)" 
            fill="transparent" />

            </g>
<text><textPath href="#arrow0" startOffset="50%" text-anchor="middle" class="a14"></textPath></text><g >

            <path id="arrow1" d="M 323 192 C 323 222, 323 224, 323 254 S 2312.3746884713864 300.59625226343115, 2342.3664626096047 301.29873645691714 " stroke="#000000ff" stroke-width="1"   marker-end="url(#endarrow)" 
            fill="transparent" />

            </g>
<text><textPath href="#arrow1" startOffset="50%" text-anchor="middle" class="a14"></textPath></text><g >

            <path id="arrow2" d="M 2415 320 C 2415 350, 2415 337, 2415 367 S 2415 384, 2415 414 " stroke="#000000ff" stroke-width="1"   marker-end="url(#endarrow)" 
            fill="transparent" />

            </g>
<text><textPath href="#arrow2" startOffset="50%" text-anchor="middle" class="a14"></textPath></text><g >

            <path id="arrow3" d="M 2415 448 C 2415 478, 2415 465, 2415 495 S 2415 512, 2415 542 " stroke="#000000ff" stroke-width="1"   marker-end="url(#endarrow)" 
            fill="transparent" />

            </g>
<text><textPath href="#arrow3" startOffset="50%" text-anchor="middle" class="a14"></textPath></text><g >

            <path id="arrow4" d="M 2415 576 C 2415 606, 2415 593, 2415 623 S 2415 640, 2415 670 " stroke="#000000ff" stroke-width="1"   marker-end="url(#endarrow)" 
            fill="transparent" />

            </g>
<text><textPath href="#arrow4" startOffset="50%" text-anchor="middle" class="a14"></textPath></text><g >

            <path id="arrow5" d="M 2415 704 C 2415 734, 2415 721, 2415 751 S 2415 768, 2415 798 " stroke="#000000ff" stroke-width="1"   marker-end="url(#endarrow)" 
            fill="transparent" />

            </g>
<text><textPath href="#arrow5" startOffset="50%" text-anchor="middle" class="a14"></textPath></text><g >

            <path id="arrow6" d="M 2365.413292542294 824.2120443462792 C 2335.917959877518 829.6915836512013, 2099.995332664776 873.5204606950779, 2070.5 879 S 1812.5614440682516 926.9189189539387, 1783.0661114034754 932.3984582588608 " stroke="#000000ff" stroke-width="1"   marker-end="url(#endarrow)" 
            fill="transparent" />

            </g>
<text><textPath href="#arrow6" startOffset="50%" text-anchor="middle" class="a14"></textPath></text><g >

            <path id="arrow7" d="M 1726 960 C 1726 990, 1726 977, 1726 1007 S 1726 1024, 1726 1054 " stroke="#000000ff" stroke-width="1"   marker-end="url(#endarrow)" 
            fill="transparent" />

            </g>
<text><textPath href="#arrow7" startOffset="50%" text-anchor="middle" class="a14"></textPath></text><g >

            <path id="arrow8" d="M 2464.037434661687 824.4529994528552 C 2493.4950936640216 830.1315843207752, 2747 849, 2747 879 S 2747 896, 2747 926 " stroke="#000000ff" stroke-width="1"   marker-end="url(#endarrow)" 
            fill="transparent" />

            </g>
<text><textPath href="#arrow8" startOffset="50%" text-anchor="middle" class="a14"></textPath></text><g >

            <path id="arrow9" d="M 2747 960 C 2747 990, 2747 977, 2747 1007 S 2747 1024, 2747 1054 " stroke="#000000ff" stroke-width="1"   marker-end="url(#endarrow)" 
            fill="transparent" />

            </g>
<text><textPath href="#arrow9" startOffset="50%" text-anchor="middle" class="a14"></textPath></text><g >

            <path id="arrow10" d="M 2415 192 C 2415 222, 2415 209, 2415 239 S 2415 256, 2415 286 " stroke="#000000ff" stroke-width="1"   marker-end="url(#endarrow)" 
            fill="transparent" />

            </g>
<text><textPath href="#arrow10" startOffset="50%" text-anchor="middle" class="a14"></textPath></text></svg>